<?xml version="1.0" ?><svg fill="none" height="1080" viewBox="0 0 1080 1080" width="1080" xmlns="http://www.w3.org/2000/svg"><rect height="760" rx="136.5" stroke="url(#paint0_linear)" stroke-width="27" width="760" x="157.5" y="159.5"/><path d="M364.143 372H421.143V426H364.143V372ZM364.143 470.5H421.143V729H364.143V470.5ZM483.248 470.5H537.248V508.5L538.248 509.5C546.915 495.167 558.248 484 572.248 476C586.248 467.667 601.748 463.5 618.748 463.5C647.081 463.5 669.415 470.833 685.748 485.5C702.081 500.167 710.248 522.167 710.248 551.5V729H653.248V566.5C652.581 546.167 648.248 531.5 640.248 522.5C632.248 513.167 619.748 508.5 602.748 508.5C593.081 508.5 584.415 510.333 576.748 514C569.081 517.333 562.581 522.167 557.248 528.5C551.915 534.5 547.748 541.667 544.748 550C541.748 558.333 540.248 567.167 540.248 576.5V729H483.248V470.5Z" fill="url(#paint1_linear)"/><defs><linearGradient gradientUnits="userSpaceOnUse" id="paint0_linear" x1="537.5" x2="537.5" y1="146" y2="933"><stop stop-color="#0078B5" stop-opacity="0.72"/><stop offset="1" stop-color="#0078B5"/></linearGradient><linearGradient gradientUnits="userSpaceOnUse" id="paint1_linear" x1="538.163" x2="538.163" y1="192.649" y2="783.793"><stop stop-color="#0078B5" stop-opacity="0.7"/><stop offset="1" stop-color="#0078B5"/></linearGradient></defs></svg>