<?xml version="1.0" ?><svg fill="none" height="1080" viewBox="0 0 1080 1080" width="1080" xmlns="http://www.w3.org/2000/svg"><path clip-rule="evenodd" d="M459.628 503.048C490.582 555.461 540.255 596.819 596.601 622.117L636.291 576.459C641.703 570.233 649.326 567.751 655.417 571.223C677.296 577.49 700.844 579.742 726.06 577.979C737.698 577.165 746 584.381 746.813 596.019L751.425 661.969C752.239 673.608 745.023 681.909 733.384 682.723C551.052 695.473 393.326 558.363 380.576 376.031C379.762 364.393 386.978 356.091 398.616 355.277L466.506 350.53C478.144 349.716 486.446 356.933 487.26 368.571C488.887 391.847 494.394 414.853 503.781 437.586C506.127 443.27 504.73 451.164 501.258 457.255L459.628 503.048Z" fill="url(#paint0_linear)" fill-rule="evenodd"/><path d="M409.457 852.402C406.527 850.945 403.157 850.646 400.017 851.565C342.162 868.493 296.979 879.629 262.09 886.081C227.001 892.57 203.131 894.162 187.554 892.539C171.629 890.88 167.927 886.34 166.958 884.343C165.567 881.475 165.277 875.317 170.017 863.512C174.509 852.326 182.232 839.176 191.568 824.589C195.205 818.906 199.171 812.881 203.211 806.744C209.126 797.758 215.201 788.53 220.637 779.777C229.924 764.824 238.54 749.436 243.5 735.084C248.346 721.063 250.698 705.177 243.266 691.346C214.495 637.806 198.167 576.579 198.167 511.5C198.167 301.356 368.523 131 578.667 131C788.812 131 959.167 301.356 959.167 511.5C959.167 721.644 788.812 892 578.667 892C517.855 892 460.409 877.743 409.457 852.402Z" stroke="url(#paint1_linear)" stroke-linecap="round" stroke-linejoin="round" stroke-width="26"/><defs><linearGradient gradientUnits="userSpaceOnUse" id="paint0_linear" x1="538.028" x2="591.357" y1="118.977" y2="881.615"><stop stop-color="#18A900" stop-opacity="0.51"/><stop offset="1" stop-color="#18A900"/></linearGradient><linearGradient gradientUnits="userSpaceOnUse" id="paint1_linear" x1="540.084" x2="540.084" y1="118" y2="963"><stop stop-color="#18A900" stop-opacity="0.6"/><stop offset="1" stop-color="#18A900"/></linearGradient></defs></svg>